<svg width="50" height="51" viewBox="0 0 50 51" fill="none" xmlns="http://www.w3.org/2000/svg">
<g clip-path="url(#clip0_6045_2894)">
<path d="M44.4238 10.0691L28.2933 21.6617L28.2933 15.0665L13.3863 15.0665L13.3863 21.6617L8.00085 21.6617L8.00085 10.0691L44.4238 10.0691Z" fill="#2AF6FF"/>
<mask id="mask0_6045_2894" style="mask-type:luminance" maskUnits="userSpaceOnUse" x="-1" y="-3" width="50" height="51">
<path d="M48.5 -2.5L48.5 47.5L-0.500002 47.5L-0.5 -2.5L48.5 -2.5Z" fill="white"/>
</mask>
<g mask="url(#mask0_6045_2894)">
<path fill-rule="evenodd" clip-rule="evenodd" d="M6.70075 4.09513C4.43344 4.09513 2.61911 5.9944 2.61911 8.30705L2.61911 21.6616C2.61911 22.201 3.04759 22.6382 3.57614 22.6382L13.3863 22.6382C13.9148 22.6382 14.3433 22.201 14.3433 21.6616L14.3433 16.0431L27.3363 16.0431L27.3363 21.6616C27.3363 22.0263 27.5353 22.3605 27.8525 22.5285C28.1697 22.6964 28.5522 22.67 28.8444 22.4601L44.9749 10.8675C45.2295 10.6846 45.3809 10.3867 45.3809 10.0691C45.3809 9.75139 45.2295 9.45357 44.9749 9.27064L28.8444 -2.32184C28.5522 -2.5318 28.1697 -2.55819 27.8525 -2.39026C27.5353 -2.22233 27.3363 -1.88806 27.3363 -1.52342L27.3363 4.09514L6.70075 4.09513ZM4.53317 8.30705C4.53317 7.04607 5.51682 6.04826 6.70075 6.04826L28.2933 6.04826C28.8218 6.04826 29.2503 5.61104 29.2503 5.0717L29.2503 0.358822L42.7618 10.0691L29.2503 19.7794L29.2503 15.0665C29.2503 14.5272 28.8218 14.09 28.2933 14.09L13.3863 14.09C12.8577 14.09 12.4293 14.5272 12.4293 15.0665L12.4293 20.6851L4.53317 20.6851L4.53317 8.30705Z" fill="#020288"/>
<path d="M3.57617 34.9309L19.7067 23.3384L19.7067 29.9335L34.6137 29.9335L34.6137 23.3384L39.9992 23.3384L39.9992 34.9309L3.57617 34.9309Z" fill="#2AF6FF"/>
<path fill-rule="evenodd" clip-rule="evenodd" d="M2.61914 34.9308C2.61914 35.2485 2.77057 35.5463 3.0251 35.7292L19.1557 47.3218C19.4478 47.5318 19.8303 47.5582 20.1475 47.3902C20.4647 47.2223 20.6638 46.8881 20.6638 46.5234L20.6638 40.9049L41.2993 40.9049C43.5666 40.9049 45.3809 39.0056 45.3809 36.6929L45.3809 23.3384C45.3809 22.799 44.9524 22.3618 44.4239 22.3618L34.6137 22.3618C34.0852 22.3618 33.6567 22.799 33.6567 23.3384L33.6567 28.9569L20.6638 28.9569L20.6638 23.3384C20.6638 22.9737 20.4647 22.6394 20.1475 22.4715C19.8303 22.3036 19.4478 22.33 19.1557 22.5399L3.0251 34.1324C2.77057 34.3153 2.61914 34.6132 2.61914 34.9308ZM5.23821 34.9308L18.7497 25.2206L18.7497 29.9335C18.7497 30.4728 19.1782 30.91 19.7067 30.91L34.6137 30.91C35.1423 30.91 35.5708 30.4728 35.5708 29.9335L35.5708 24.3149L43.4669 24.3149L43.4669 36.6929C43.4669 37.9539 42.4832 38.9517 41.2993 38.9517L19.7067 38.9517C19.1782 38.9517 18.7497 39.389 18.7497 39.9283L18.7497 44.6412L5.23821 34.9308Z" fill="#020288"/>
</g>
</g>
<defs>
<clipPath id="clip0_6045_2894">
<rect width="50" height="49" fill="white" transform="translate(49.5 0.5) rotate(90)"/>
</clipPath>
</defs>
</svg>
