<svg width="50" height="51" viewBox="0 0 50 51" fill="none" xmlns="http://www.w3.org/2000/svg">
<path d="M45.4238 13.0691L29.2933 24.6617L29.2933 18.0665L14.3863 18.0665L14.3863 24.6617L9.00085 24.6617L9.00085 13.0691L45.4238 13.0691Z" fill="#2AF6FF"/>
<mask id="mask0_6056_149" style="mask-type:luminance" maskUnits="userSpaceOnUse" x="0" y="0" width="50" height="51">
<path d="M49.5 0.500002L49.5 50.5L0.499998 50.5L0.5 0.5L49.5 0.500002Z" fill="white"/>
</mask>
<g mask="url(#mask0_6056_149)">
<path fill-rule="evenodd" clip-rule="evenodd" d="M7.70078 7.09513C5.43347 7.09513 3.61914 8.9944 3.61914 11.307L3.61914 24.6616C3.61914 25.201 4.04762 25.6382 4.57617 25.6382L14.3863 25.6382C14.9149 25.6382 15.3433 25.201 15.3433 24.6616L15.3433 19.0431L28.3363 19.0431L28.3363 24.6616C28.3363 25.0263 28.5354 25.3605 28.8526 25.5285C29.1698 25.6964 29.5522 25.67 29.8444 25.4601L45.975 13.8675C46.2295 13.6846 46.3809 13.3867 46.3809 13.0691C46.3809 12.7514 46.2295 12.4536 45.975 12.2706L29.8444 0.678164C29.5522 0.468198 29.1698 0.441815 28.8526 0.609744C28.5354 0.777674 28.3363 1.11194 28.3363 1.47658L28.3363 7.09514L7.70078 7.09513ZM5.5332 11.307C5.5332 10.0461 6.51685 9.04826 7.70078 9.04826L29.2933 9.04826C29.8219 9.04826 30.2504 8.61104 30.2504 8.0717L30.2504 3.35882L43.7618 13.0691L30.2504 22.7794L30.2504 18.0665C30.2504 17.5272 29.8219 17.09 29.2933 17.09L14.3863 17.09C13.8578 17.09 13.4293 17.5272 13.4293 18.0665L13.4293 23.6851L5.5332 23.6851L5.5332 11.307Z" fill="#2AF6FF"/>
<path d="M4.57617 37.9309L20.7067 26.3384L20.7067 32.9335L35.6137 32.9335L35.6137 26.3384L40.9992 26.3384L40.9992 37.9309L4.57617 37.9309Z" fill="#2AF6FF"/>
<path fill-rule="evenodd" clip-rule="evenodd" d="M3.61914 37.9308C3.61914 38.2485 3.77057 38.5463 4.0251 38.7292L20.1557 50.3218C20.4478 50.5318 20.8303 50.5582 21.1475 50.3902C21.4647 50.2223 21.6638 49.8881 21.6638 49.5234L21.6638 43.9049L42.2993 43.9049C44.5666 43.9049 46.3809 42.0056 46.3809 39.6929L46.3809 26.3384C46.3809 25.799 45.9524 25.3618 45.4239 25.3618L35.6137 25.3618C35.0852 25.3618 34.6567 25.799 34.6567 26.3384L34.6567 31.9569L21.6638 31.9569L21.6638 26.3384C21.6638 25.9737 21.4647 25.6394 21.1475 25.4715C20.8303 25.3036 20.4478 25.33 20.1557 25.5399L4.0251 37.1324C3.77057 37.3153 3.61914 37.6132 3.61914 37.9308ZM6.23821 37.9308L19.7497 28.2206L19.7497 32.9335C19.7497 33.4728 20.1782 33.91 20.7067 33.91L35.6137 33.91C36.1423 33.91 36.5708 33.4728 36.5708 32.9335L36.5708 27.3149L44.4669 27.3149L44.4669 39.6929C44.4669 40.9539 43.4832 41.9517 42.2993 41.9517L20.7067 41.9517C20.1782 41.9517 19.7497 42.389 19.7497 42.9283L19.7497 47.6412L6.23821 37.9308Z" fill="#2AF6FF"/>
</g>
</svg>
