<svg width="42" height="42" viewBox="0 0 42 42" fill="none" xmlns="http://www.w3.org/2000/svg">
<path d="M42 21C42 32.598 32.598 42 21 42C9.40202 42 0 32.598 0 21C0 9.40202 9.40202 0 21 0C32.598 0 42 9.40202 42 21Z" fill="#0088CC"/>
<path d="M13.3779 26.7556L21.467 14.3112L29.5557 26.7556H13.3779Z" fill="#B4DCFF"/>
<path d="M21.156 21.3143C21.0835 21.3143 21.0111 21.2956 20.9458 21.2582L9.23225 14.4945C9.10248 14.4192 9.02206 14.2807 9.02206 14.1306C9.02206 13.9805 9.10208 13.842 9.23225 13.7667L20.9454 7.00303C21.0756 6.92819 21.2356 6.92819 21.3654 7.00303L33.0785 13.7667C33.2087 13.842 33.2887 13.9805 33.2887 14.1306C33.2887 14.2807 33.2087 14.4192 33.0785 14.4945L21.3658 21.2578C21.3009 21.2952 21.2284 21.3139 21.1556 21.3139L21.156 21.3143ZM10.2828 14.1306L21.156 20.409L32.0288 14.1306L21.1556 7.85223L10.2828 14.1306Z" fill="white"/>
<path d="M21.1562 34.8444C21.0837 34.8444 21.0113 34.8256 20.946 34.7882C20.8158 34.713 20.7358 34.5744 20.7358 34.4243V20.8978C20.7358 20.7477 20.8158 20.6091 20.9456 20.5339L32.6587 13.7706C32.7889 13.6958 32.9489 13.6958 33.0787 13.7706C33.2089 13.8459 33.2889 13.9844 33.2889 14.1345V27.6611C33.2889 27.8112 33.2089 27.9497 33.0787 28.0249L21.3659 34.7882C21.3011 34.8256 21.2286 34.8444 21.1558 34.8444H21.1562ZM21.5761 21.1402V33.6966L32.4489 27.4186V14.8623L21.5761 21.1402Z" fill="white"/>
<path d="M21.1556 34.8444C21.0831 34.8444 21.0107 34.8256 20.9454 34.7882L9.23225 28.0249C9.10208 27.9497 9.02206 27.8112 9.02206 27.6611V14.1345C9.02206 13.9844 9.10248 13.8459 9.23225 13.7706C9.36242 13.6958 9.52245 13.6958 9.65223 13.7706L21.3654 20.5339C21.4955 20.6091 21.5756 20.7477 21.5756 20.8978V34.4243C21.5756 34.5744 21.4955 34.713 21.3654 34.7882C21.3005 34.8256 21.228 34.8444 21.1552 34.8444H21.1556ZM9.86241 27.4186L20.7356 33.6966V21.1402L9.86241 14.8623V27.4186Z" fill="white"/>
</svg>
