<svg width="49" height="49" viewBox="0 0 49 49" fill="none" xmlns="http://www.w3.org/2000/svg">
<path d="M14.9832 20.708V27.2019H0.957001V32.1226H31.4294L14.9832 20.708Z" fill="url(#paint0_linear_6045_2874)"/>
<mask id="mask0_6045_2874" style="mask-type:luminance" maskUnits="userSpaceOnUse" x="0" y="0" width="49" height="49">
<path d="M0 3.8147e-06H49V49H0V3.8147e-06Z" fill="white"/>
</mask>
<g mask="url(#mask0_6045_2874)">
<path fill-rule="evenodd" clip-rule="evenodd" d="M14.5396 44.3852C14.8551 44.5504 15.2363 44.5266 15.5289 44.3235L31.975 32.9089C32.2327 32.73 32.3863 32.4363 32.3863 32.1227C32.3863 31.809 32.2327 31.5153 31.975 31.3364L15.5289 19.9218C15.2363 19.7187 14.8551 19.695 14.5396 19.8601C14.224 20.0252 14.0262 20.3519 14.0262 20.708V26.2449H0.957062C0.428508 26.2449 3.05176e-05 26.6733 3.05176e-05 27.2019V37.0433C3.05176e-05 37.5719 0.428508 38.0004 0.957062 38.0004H14.0262V43.5373C14.0262 43.8934 14.224 44.2201 14.5396 44.3852ZM15.9402 41.7081V37.0433C15.9402 36.5148 15.5118 36.0863 14.9832 36.0863H1.91409V28.1589H14.9832C15.5118 28.1589 15.9402 27.7304 15.9402 27.2019V22.5372L29.7509 32.1227L15.9402 41.7081Z" fill="#020288"/>
</g>
<path d="M34.0168 28.292V21.7981H48.043V16.8774H17.5706L34.0168 28.292Z" fill="url(#paint1_linear_6045_2874)"/>
<mask id="mask1_6045_2874" style="mask-type:luminance" maskUnits="userSpaceOnUse" x="0" y="0" width="49" height="49">
<path d="M0 3.8147e-06H49V49H0V3.8147e-06Z" fill="white"/>
</mask>
<g mask="url(#mask1_6045_2874)">
<path fill-rule="evenodd" clip-rule="evenodd" d="M34.4604 29.1399C34.776 28.9748 34.9738 28.6481 34.9738 28.292V22.7552H48.0429C48.5715 22.7552 49 22.3267 49 21.7981V11.9567C49 11.4281 48.5715 10.9996 48.0429 10.9996H34.9738V5.46274C34.9738 5.10658 34.776 4.77987 34.4604 4.61476C34.1449 4.44965 33.7637 4.47345 33.4711 4.67653L17.025 16.0911C16.7673 16.27 16.6136 16.5637 16.6136 16.8774C16.6136 17.191 16.7673 17.4847 17.025 17.6636L33.4711 29.0782C33.7637 29.2813 34.1449 29.3051 34.4604 29.1399ZM19.2491 16.8774L33.0597 7.29194V11.9567C33.0597 12.4852 33.4882 12.9137 34.0168 12.9137H47.0859V20.8411H34.0168C33.4882 20.8411 33.0597 21.2696 33.0597 21.7981V26.4628L19.2491 16.8774Z" fill="#020288"/>
</g>
<defs>
<linearGradient id="paint0_linear_6045_2874" x1="16.1932" y1="32.1226" x2="16.1932" y2="20.708" gradientUnits="userSpaceOnUse">
<stop stop-color="#A4FCC4"/>
<stop offset="1" stop-color="#A4FCC4"/>
</linearGradient>
<linearGradient id="paint1_linear_6045_2874" x1="32.8068" y1="28.292" x2="32.8068" y2="16.8774" gradientUnits="userSpaceOnUse">
<stop stop-color="#A4FCC4"/>
<stop offset="1" stop-color="#A4FCC4"/>
</linearGradient>
</defs>
</svg>
