<svg width="49" height="50" viewBox="0 0 49 50" fill="none" xmlns="http://www.w3.org/2000/svg">
<mask id="mask0_6055_88" style="mask-type:luminance" maskUnits="userSpaceOnUse" x="0" y="0" width="49" height="50">
<path d="M0 3.8147e-06H49V50H0V3.8147e-06Z" fill="white"/>
</mask>
<g mask="url(#mask0_6055_88)">
<path d="M24.576 42.6459C18.7497 42.6459 14.0096 37.8091 14.0096 31.8638C14.0096 25.9185 18.7497 21.0818 24.576 21.0818C30.4023 21.0818 35.1424 25.9185 35.1424 31.8638C35.1424 37.8091 30.4023 42.6459 24.576 42.6459Z" fill="#FFF59B"/>
<path fill-rule="evenodd" clip-rule="evenodd" d="M21.6971 35.7861C21.6971 36.3254 22.1256 36.7626 22.6542 36.7626H24.576C26.166 36.7626 27.4549 35.4474 27.4549 33.8249C27.4549 32.2025 26.166 30.8872 24.576 30.8872C24.0431 30.8872 23.6112 30.4465 23.6112 29.9028C23.6112 29.3589 24.0432 28.9182 24.576 28.9182H26.4979C27.0265 28.9182 27.4549 28.481 27.4549 27.9416C27.4549 27.4023 27.0265 26.9651 26.4979 26.9651H24.576C22.9859 26.9651 21.6971 28.2804 21.6971 29.9028C21.6971 31.5252 22.986 32.8404 24.576 32.8404C25.1089 32.8404 25.5409 33.2812 25.5409 33.8249C25.5409 34.3687 25.1089 34.8095 24.576 34.8095H22.6542C22.1256 34.8095 21.6971 35.2467 21.6971 35.7861Z" fill="#23282F"/>
<path fill-rule="evenodd" clip-rule="evenodd" d="M24.5759 28.9182C25.1045 28.9182 25.533 28.481 25.533 27.9417V25.9805C25.533 25.4412 25.1045 25.004 24.5759 25.004C24.0474 25.004 23.6189 25.4412 23.6189 25.9805V27.9417C23.6189 28.481 24.0474 28.9182 24.5759 28.9182Z" fill="#23282F"/>
<path fill-rule="evenodd" clip-rule="evenodd" d="M24.5759 38.7237C25.1045 38.7237 25.533 38.2865 25.533 37.7472V35.786C25.533 35.2467 25.1045 34.8095 24.5759 34.8095C24.0474 34.8095 23.6189 35.2467 23.6189 35.786V37.7472C23.6189 38.2865 24.0474 38.7237 24.5759 38.7237Z" fill="#23282F"/>
<path fill-rule="evenodd" clip-rule="evenodd" d="M20.1679 48.0469C14.3133 48.0469 9.14329 44.1505 7.42159 38.4406L7.42158 38.4405C6.41307 35.0962 6.70588 31.4841 8.23898 28.3542C8.23922 28.3537 8.23947 28.3532 8.23971 28.3527L14.5009 15.6808H34.6511L40.9122 28.3527C40.9125 28.3533 40.9128 28.3539 40.9131 28.3545C42.4461 31.4843 42.7388 35.0964 41.7304 38.4405C40.0086 44.1505 34.8386 48.0469 28.984 48.0469H20.1679ZM5.59216 39.0149C7.56097 45.5444 13.473 50 20.1679 50H28.984C35.6789 50 41.591 45.5444 43.5599 39.0149C44.7132 35.19 44.3781 31.0587 42.6242 27.4793L42.6228 27.4764L36.095 14.2646C35.9323 13.9353 35.6018 13.7276 35.2404 13.7276H13.9116C13.5503 13.7276 13.2197 13.9353 13.0571 14.2646L6.52915 27.4764L6.52771 27.4793C4.77386 31.0587 4.43872 35.19 5.59216 39.0149Z" fill="#FFF59B"/>
<path fill-rule="evenodd" clip-rule="evenodd" d="M10.6462 12.7511C10.6462 14.3692 11.9316 15.6808 13.5173 15.6808H35.6345C37.2202 15.6808 38.5056 14.3692 38.5056 12.7511V12.7352C38.5056 11.1172 37.2202 9.80552 35.6345 9.80552H13.5173C11.9316 9.80552 10.6462 11.1172 10.6462 12.7352V12.7511ZM13.5173 13.7277C12.9888 13.7277 12.5603 13.2905 12.5603 12.7511V12.7352C12.5603 12.1958 12.9888 11.7586 13.5173 11.7586H35.6345C36.1631 11.7586 36.5915 12.1958 36.5915 12.7352V12.7511C36.5915 13.2905 36.1631 13.7277 35.6345 13.7277H13.5173Z" fill="#FFF59B"/>
<path fill-rule="evenodd" clip-rule="evenodd" d="M13.7392 11.1558C13.8874 11.5207 14.2363 11.7586 14.6234 11.7586H34.5285C34.9156 11.7586 35.2645 11.5207 35.4127 11.1558L39.3937 1.35035C39.5161 1.04902 39.4829 0.705256 39.3053 0.434053C39.1277 0.162849 38.8292 1.43051e-05 38.5096 1.43051e-05C37.0035 1.43051e-05 36.1993 0.679179 35.5877 1.19563L35.5769 1.20478C35.0285 1.66782 34.6721 1.96115 33.8646 1.96115C33.057 1.96115 32.7006 1.66781 32.1522 1.20478L32.1414 1.19561C31.5298 0.679166 30.7256 1.43051e-05 29.2196 1.43051e-05C27.7137 1.43051e-05 26.9095 0.679211 26.2981 1.19564L26.2872 1.20483C25.7389 1.66787 25.3826 1.96115 24.5753 1.96115C23.7679 1.96115 23.4115 1.66785 22.8632 1.20481L22.8524 1.19563C22.2409 0.679198 21.4367 1.43051e-05 19.9308 1.43051e-05C18.4249 1.43051e-05 17.6208 0.679212 17.0093 1.19564L16.9985 1.20483C16.4502 1.66787 16.0939 1.96115 15.2865 1.96115C14.4793 1.96115 14.123 1.66788 13.5747 1.20483L13.5638 1.19566C12.9524 0.679224 12.1482 1.43051e-05 10.6423 1.43051e-05C10.3227 1.43051e-05 10.0242 0.162849 9.84658 0.434053C9.669 0.705256 9.63584 1.04902 9.75818 1.35035L13.7392 11.1558ZM15.2628 9.80548L12.3962 2.74485C13.0038 3.25773 13.806 3.91427 15.2865 3.91427C16.7924 3.91427 17.5965 3.23507 18.208 2.71864L18.2189 2.70946C18.7671 2.24642 19.1235 1.95314 19.9308 1.95314C20.7382 1.95314 21.0946 2.24643 21.6429 2.70947L21.6537 2.71865C22.2652 3.23508 23.0694 3.91427 24.5753 3.91427C26.0811 3.91427 26.8853 3.23507 27.4967 2.71864L27.5076 2.70946C28.0559 2.24642 28.4122 1.95314 29.2196 1.95314C30.0271 1.95314 30.3836 2.24648 30.9319 2.70951L30.9428 2.71868C31.5544 3.23512 32.3586 3.91427 33.8646 3.91427C35.3458 3.91427 36.1481 3.25732 36.7559 2.74435L33.8891 9.80548H15.2628Z" fill="#FFF59B"/>
</g>
</svg>
