<svg width="46" height="58" viewBox="0 0 46 58" fill="none" xmlns="http://www.w3.org/2000/svg">
<path d="M13.0616 47.1045C13.6913 45.0291 15.8955 43.8605 17.9846 44.4944C20.0737 45.1283 21.2568 47.3247 20.6271 49.4001C19.8007 52.1235 15.3105 53.3072 15.3105 53.3072C15.3105 53.3072 12.2271 49.8546 13.0616 47.1045Z" fill="#FFBDBC"/>
<path fill-rule="evenodd" clip-rule="evenodd" d="M29.5853 38.0074C30.039 37.6992 30.6567 37.8171 30.9649 38.2708L34.5889 43.6051C34.8408 43.9759 34.8131 44.4694 34.5213 44.8097L27.1753 53.3761C26.9465 53.643 26.5937 53.769 26.2476 53.7075C25.9015 53.646 25.6137 53.4062 25.4908 53.0768L23.1026 46.677C22.9108 46.1631 23.172 45.5911 23.6859 45.3993C24.1998 45.2075 24.7719 45.4686 24.9637 45.9826L26.7633 50.8051L32.519 44.0931L29.3219 39.3871C29.0136 38.9334 29.1315 38.3157 29.5853 38.0074Z" fill="#020288"/>
<path fill-rule="evenodd" clip-rule="evenodd" d="M11.9338 32.6591C12.1397 33.1675 11.8945 33.7466 11.3861 33.9526L6.12371 36.084L7.17915 44.8627L11.3552 41.8534C11.8002 41.5327 12.421 41.6335 12.7417 42.0785C13.0623 42.5235 12.9616 43.1442 12.5165 43.4649L6.97467 47.4585C6.6895 47.664 6.31695 47.7035 5.99505 47.5623C5.67315 47.4211 5.44986 47.1203 5.4079 46.7713L4.06085 35.5671C4.00734 35.1221 4.2586 34.6963 4.67409 34.528L10.6403 32.1114C11.1488 31.9055 11.7278 32.1507 11.9338 32.6591Z" fill="#020288"/>
<path fill-rule="evenodd" clip-rule="evenodd" d="M29.3581 4.70045C29.8223 4.47809 30.3794 4.64713 30.6417 5.08993L34.0784 10.8909C38.9647 19.1386 38.2547 29.511 32.2894 36.9865L24.8273 46.9259C24.5767 47.2597 24.1441 47.4012 23.7446 47.28L11.6474 43.6093C11.2479 43.4881 10.9669 43.1301 10.944 42.7133L10.2634 30.3031C9.45803 20.7732 14.6317 11.7552 23.2773 7.61349L29.3581 4.70045ZM29.3962 6.88478L24.1355 9.40494L24.1355 9.40495C16.2274 13.1933 11.5021 21.44 12.2439 30.1496C12.2448 30.1596 12.2455 30.1695 12.246 30.1795L12.8894 41.9103L23.6561 45.1773L30.7098 35.782C30.7158 35.774 30.7219 35.7661 30.7281 35.7583C36.1848 28.9295 36.8389 19.4475 32.3694 11.9033L33.2239 11.3971L32.3694 11.9033L29.3962 6.88478Z" fill="#020288"/>
<path d="M21.5831 32.6353C25.3359 33.774 29.2952 31.6748 30.4265 27.9466C31.5577 24.2184 29.4325 20.273 25.6797 19.1343C21.9269 17.9956 17.9676 20.0948 16.8363 23.823C15.7051 27.5512 17.8303 31.4966 21.5831 32.6353Z" fill="#FFBDBC"/>
<path fill-rule="evenodd" clip-rule="evenodd" d="M19.1783 10.7272C19.3376 10.2023 19.8922 9.90594 20.4171 10.0652L35.0944 14.5187C35.6193 14.678 35.9157 15.2326 35.7564 15.7575C35.5971 16.2824 35.0425 16.5788 34.5176 16.4196L19.8403 11.966C19.3154 11.8068 19.019 11.2521 19.1783 10.7272Z" fill="#020288"/>
<path fill-rule="evenodd" clip-rule="evenodd" d="M16.4456 38.1153C16.6049 37.5904 17.1595 37.294 17.6844 37.4533L22.147 38.8074C22.6719 38.9666 22.9683 39.5213 22.809 40.0462C22.6498 40.5711 22.0951 40.8675 21.5702 40.7082L17.1076 39.3541C16.5827 39.1948 16.2863 38.6402 16.4456 38.1153Z" fill="#020288"/>
</svg>
