<svg width="49" height="50" viewBox="0 0 49 50" fill="none" xmlns="http://www.w3.org/2000/svg">
<mask id="mask0_6045_2909" style="mask-type:luminance" maskUnits="userSpaceOnUse" x="0" y="0" width="49" height="50">
<path d="M0 3.8147e-06H49V50H0V3.8147e-06Z" fill="white"/>
</mask>
<g mask="url(#mask0_6045_2909)">
<path d="M24.576 42.6459C18.7497 42.6459 14.0096 37.8091 14.0096 31.8638C14.0096 25.9185 18.7497 21.0818 24.576 21.0818C30.4023 21.0818 35.1424 25.9185 35.1424 31.8638C35.1424 37.8091 30.4023 42.6459 24.576 42.6459Z" fill="#FFF59B"/>
<path fill-rule="evenodd" clip-rule="evenodd" d="M21.6971 35.7861C21.6971 36.3254 22.1256 36.7626 22.6542 36.7626H24.576C26.166 36.7626 27.4549 35.4474 27.4549 33.8249C27.4549 32.2025 26.166 30.8872 24.576 30.8872C24.0431 30.8872 23.6112 30.4465 23.6112 29.9028C23.6112 29.3589 24.0432 28.9182 24.576 28.9182H26.4979C27.0265 28.9182 27.4549 28.481 27.4549 27.9416C27.4549 27.4023 27.0265 26.9651 26.4979 26.9651H24.576C22.9859 26.9651 21.6971 28.2804 21.6971 29.9028C21.6971 31.5252 22.986 32.8404 24.576 32.8404C25.1089 32.8404 25.5409 33.2812 25.5409 33.8249C25.5409 34.3687 25.1089 34.8095 24.576 34.8095H22.6542C22.1256 34.8095 21.6971 35.2467 21.6971 35.7861Z" fill="#020288"/>
<path fill-rule="evenodd" clip-rule="evenodd" d="M24.576 28.9182C25.1046 28.9182 25.5331 28.481 25.5331 27.9417V25.9805C25.5331 25.4412 25.1046 25.004 24.576 25.004C24.0475 25.004 23.619 25.4412 23.619 25.9805V27.9417C23.619 28.481 24.0475 28.9182 24.576 28.9182Z" fill="#020288"/>
<path fill-rule="evenodd" clip-rule="evenodd" d="M24.576 38.7237C25.1046 38.7237 25.5331 38.2865 25.5331 37.7472V35.786C25.5331 35.2467 25.1046 34.8095 24.576 34.8095C24.0475 34.8095 23.619 35.2467 23.619 35.786V37.7472C23.619 38.2865 24.0475 38.7237 24.576 38.7237Z" fill="#020288"/>
<path fill-rule="evenodd" clip-rule="evenodd" d="M20.168 48.0469C14.3133 48.0469 9.14333 44.1505 7.42164 38.4406L7.42163 38.4405C6.41312 35.0962 6.70592 31.4841 8.23903 28.3542C8.23927 28.3537 8.23951 28.3532 8.23976 28.3527L14.5009 15.6808H34.6512L40.9123 28.3527C40.9126 28.3533 40.9129 28.3539 40.9131 28.3545C42.4461 31.4843 42.7389 35.0964 41.7305 38.4405C40.0087 44.1505 34.8387 48.0469 28.984 48.0469H20.168ZM5.59221 39.0149C7.56102 45.5444 13.4731 50 20.168 50H28.984C35.679 50 41.591 45.5444 43.5599 39.0149C44.7133 35.19 44.3781 31.0587 42.6243 27.4793L42.6228 27.4764L36.095 14.2646C35.9323 13.9353 35.6018 13.7276 35.2404 13.7276H13.9117C13.5503 13.7276 13.2198 13.9353 13.0571 14.2646L6.5292 27.4764L6.52776 27.4793C4.7739 31.0587 4.43876 35.19 5.59221 39.0149Z" fill="#020288"/>
<path fill-rule="evenodd" clip-rule="evenodd" d="M10.6463 12.7511C10.6463 14.3692 11.9317 15.6808 13.5174 15.6808H35.6346C37.2203 15.6808 38.5057 14.3692 38.5057 12.7511V12.7352C38.5057 11.1172 37.2203 9.80552 35.6346 9.80552H13.5174C11.9317 9.80552 10.6463 11.1172 10.6463 12.7352V12.7511ZM13.5174 13.7277C12.9888 13.7277 12.5604 13.2905 12.5604 12.7511V12.7352C12.5604 12.1958 12.9888 11.7586 13.5174 11.7586H35.6346C36.1632 11.7586 36.5916 12.1958 36.5916 12.7352V12.7511C36.5916 13.2905 36.1632 13.7277 35.6346 13.7277H13.5174Z" fill="#020288"/>
<path fill-rule="evenodd" clip-rule="evenodd" d="M13.7393 11.1558C13.8875 11.5207 14.2364 11.7586 14.6235 11.7586H34.5286C34.9156 11.7586 35.2646 11.5207 35.4127 11.1558L39.3938 1.35035C39.5161 1.04902 39.483 0.705256 39.3054 0.434053C39.1278 0.162849 38.8293 1.43051e-05 38.5096 1.43051e-05C37.0036 1.43051e-05 36.1994 0.679179 35.5878 1.19563L35.577 1.20478C35.0286 1.66782 34.6722 1.96115 33.8647 1.96115C33.0571 1.96115 32.7007 1.66781 32.1523 1.20478L32.1414 1.19561C31.5299 0.679166 30.7257 1.43051e-05 29.2196 1.43051e-05C27.7138 1.43051e-05 26.9096 0.679211 26.2982 1.19564L26.2873 1.20483C25.739 1.66787 25.3827 1.96115 24.5754 1.96115C23.768 1.96115 23.4116 1.66785 22.8633 1.20481L22.8524 1.19563C22.241 0.679198 21.4368 1.43051e-05 19.9309 1.43051e-05C18.425 1.43051e-05 17.6209 0.679212 17.0094 1.19564L16.9986 1.20483C16.4503 1.66787 16.0939 1.96115 15.2866 1.96115C14.4793 1.96115 14.123 1.66788 13.5748 1.20483L13.5639 1.19566C12.9525 0.679224 12.1483 1.43051e-05 10.6424 1.43051e-05C10.3228 1.43051e-05 10.0242 0.162849 9.84667 0.434053C9.66909 0.705256 9.63593 1.04902 9.75827 1.35035L13.7393 11.1558ZM15.2629 9.80548L12.3963 2.74485C13.0039 3.25773 13.8061 3.91427 15.2866 3.91427C16.7925 3.91427 17.5966 3.23507 18.2081 2.71864L18.219 2.70946C18.7672 2.24642 19.1236 1.95314 19.9309 1.95314C20.7383 1.95314 21.0946 2.24643 21.6429 2.70947L21.6538 2.71865C22.2653 3.23508 23.0695 3.91427 24.5754 3.91427C26.0812 3.91427 26.8854 3.23507 27.4968 2.71864L27.5077 2.70946C28.056 2.24642 28.4123 1.95314 29.2196 1.95314C30.0272 1.95314 30.3837 2.24648 30.932 2.70951L30.9429 2.71868C31.5544 3.23512 32.3587 3.91427 33.8647 3.91427C35.3458 3.91427 36.1482 3.25732 36.756 2.74435L33.8892 9.80548H15.2629Z" fill="#020288"/>
</g>
</svg>
